<mxfile host="app.diagrams.net" agent="Mozilla/5.0 (Windows NT 10.0; Win64; x64) AppleWebKit/537.36 (KHTML, like Gecko) Chrome/134.0.0.0 YaBrowser/25.4.0.0 Safari/537.36" version="27.1.4">
  <diagram name="Страница — 1" id="fb6KSBWtoacGVFj3-9E-">
    <mxGraphModel dx="1885" dy="616" grid="1" gridSize="10" guides="1" tooltips="1" connect="1" arrows="1" fold="1" page="1" pageScale="1" pageWidth="827" pageHeight="1169" math="0" shadow="0">
      <root>
        <mxCell id="0" />
        <mxCell id="1" parent="0" />
        <mxCell id="Wy7UdA5kOT8vDQ_I42Wn-6" value="" style="edgeStyle=orthogonalEdgeStyle;rounded=0;orthogonalLoop=1;jettySize=auto;html=1;" edge="1" parent="1" source="Wy7UdA5kOT8vDQ_I42Wn-1" target="Wy7UdA5kOT8vDQ_I42Wn-3">
          <mxGeometry relative="1" as="geometry" />
        </mxCell>
        <mxCell id="Wy7UdA5kOT8vDQ_I42Wn-1" value="Начало" style="ellipse;whiteSpace=wrap;html=1;aspect=fixed;" vertex="1" parent="1">
          <mxGeometry x="340" y="10" width="80" height="80" as="geometry" />
        </mxCell>
        <mxCell id="Wy7UdA5kOT8vDQ_I42Wn-3" value="Здравствуйте. Компания Тинькофф. Меня зовут Мария. Как я могу к Вам обращаться?" style="rounded=0;whiteSpace=wrap;html=1;" vertex="1" parent="1">
          <mxGeometry x="240" y="140" width="280" height="60" as="geometry" />
        </mxCell>
        <mxCell id="Wy7UdA5kOT8vDQ_I42Wn-5" value="" style="endArrow=classic;html=1;rounded=0;" edge="1" parent="1">
          <mxGeometry width="50" height="50" relative="1" as="geometry">
            <mxPoint x="380" y="100" as="sourcePoint" />
            <mxPoint x="379.5" y="140" as="targetPoint" />
            <Array as="points">
              <mxPoint x="380" y="100" />
              <mxPoint x="380" y="90" />
            </Array>
          </mxGeometry>
        </mxCell>
        <mxCell id="Wy7UdA5kOT8vDQ_I42Wn-7" value="" style="endArrow=classic;html=1;rounded=0;" edge="1" parent="1">
          <mxGeometry width="50" height="50" relative="1" as="geometry">
            <mxPoint x="181" y="206" as="sourcePoint" />
            <mxPoint x="181" y="260" as="targetPoint" />
            <Array as="points">
              <mxPoint x="181" y="176" />
              <mxPoint x="181" y="206" />
            </Array>
          </mxGeometry>
        </mxCell>
        <mxCell id="Wy7UdA5kOT8vDQ_I42Wn-8" value="Здравствуйте. Я - Сергей." style="text;html=1;align=center;verticalAlign=middle;whiteSpace=wrap;rounded=0;" vertex="1" parent="1">
          <mxGeometry x="20" y="200" width="150" height="30" as="geometry" />
        </mxCell>
        <mxCell id="Wy7UdA5kOT8vDQ_I42Wn-10" value="" style="endArrow=none;html=1;rounded=0;" edge="1" parent="1">
          <mxGeometry width="50" height="50" relative="1" as="geometry">
            <mxPoint x="180" y="176" as="sourcePoint" />
            <mxPoint x="240" y="176" as="targetPoint" />
            <Array as="points">
              <mxPoint x="200" y="176" />
            </Array>
          </mxGeometry>
        </mxCell>
        <mxCell id="Wy7UdA5kOT8vDQ_I42Wn-11" value="" style="endArrow=none;html=1;rounded=0;" edge="1" parent="1">
          <mxGeometry width="50" height="50" relative="1" as="geometry">
            <mxPoint x="521" y="175" as="sourcePoint" />
            <mxPoint x="581" y="175" as="targetPoint" />
            <Array as="points">
              <mxPoint x="541" y="175" />
            </Array>
          </mxGeometry>
        </mxCell>
        <mxCell id="Wy7UdA5kOT8vDQ_I42Wn-12" value="" style="endArrow=classic;html=1;rounded=0;" edge="1" parent="1">
          <mxGeometry width="50" height="50" relative="1" as="geometry">
            <mxPoint x="580" y="175" as="sourcePoint" />
            <mxPoint x="580" y="260" as="targetPoint" />
          </mxGeometry>
        </mxCell>
        <mxCell id="Wy7UdA5kOT8vDQ_I42Wn-14" value="Меня не интересует. До свидания." style="text;html=1;align=center;verticalAlign=middle;whiteSpace=wrap;rounded=0;" vertex="1" parent="1">
          <mxGeometry x="580" y="200" width="220" height="30" as="geometry" />
        </mxCell>
        <mxCell id="Wy7UdA5kOT8vDQ_I42Wn-16" value="Скажите. Вы сейчас пользуетесь кредитной картой?" style="rounded=0;whiteSpace=wrap;html=1;" vertex="1" parent="1">
          <mxGeometry x="70" y="260" width="230" height="60" as="geometry" />
        </mxCell>
        <mxCell id="Wy7UdA5kOT8vDQ_I42Wn-19" value="Понимаю. Спасибо за уделенное время. Всего доброго." style="rounded=0;whiteSpace=wrap;html=1;" vertex="1" parent="1">
          <mxGeometry x="460" y="260" width="240" height="60" as="geometry" />
        </mxCell>
        <mxCell id="Wy7UdA5kOT8vDQ_I42Wn-21" value="" style="endArrow=none;html=1;rounded=0;" edge="1" parent="1">
          <mxGeometry width="50" height="50" relative="1" as="geometry">
            <mxPoint x="300" y="300" as="sourcePoint" />
            <mxPoint x="360" y="300" as="targetPoint" />
            <Array as="points">
              <mxPoint x="320" y="300" />
            </Array>
          </mxGeometry>
        </mxCell>
        <mxCell id="Wy7UdA5kOT8vDQ_I42Wn-22" value="" style="endArrow=classic;html=1;rounded=0;" edge="1" parent="1">
          <mxGeometry width="50" height="50" relative="1" as="geometry">
            <mxPoint x="360" y="300" as="sourcePoint" />
            <mxPoint x="360" y="350" as="targetPoint" />
            <Array as="points">
              <mxPoint x="360" y="320" />
            </Array>
          </mxGeometry>
        </mxCell>
        <mxCell id="Wy7UdA5kOT8vDQ_I42Wn-23" value="Нет. Не надо" style="text;html=1;align=center;verticalAlign=middle;whiteSpace=wrap;rounded=0;" vertex="1" parent="1">
          <mxGeometry x="360" y="300" width="90" height="50" as="geometry" />
        </mxCell>
        <mxCell id="Wy7UdA5kOT8vDQ_I42Wn-24" value="" style="endArrow=none;html=1;rounded=0;" edge="1" parent="1">
          <mxGeometry width="50" height="50" relative="1" as="geometry">
            <mxPoint x="360" y="350" as="sourcePoint" />
            <mxPoint x="560" y="350" as="targetPoint" />
            <Array as="points">
              <mxPoint x="370" y="350" />
            </Array>
          </mxGeometry>
        </mxCell>
        <mxCell id="Wy7UdA5kOT8vDQ_I42Wn-26" value="" style="endArrow=classic;html=1;rounded=0;" edge="1" parent="1">
          <mxGeometry width="50" height="50" relative="1" as="geometry">
            <mxPoint x="560" y="350" as="sourcePoint" />
            <mxPoint x="560" y="320" as="targetPoint" />
            <Array as="points">
              <mxPoint x="560" y="340" />
            </Array>
          </mxGeometry>
        </mxCell>
        <mxCell id="Wy7UdA5kOT8vDQ_I42Wn-27" value="" style="endArrow=classic;html=1;rounded=0;" edge="1" parent="1">
          <mxGeometry width="50" height="50" relative="1" as="geometry">
            <mxPoint x="184.5" y="320" as="sourcePoint" />
            <mxPoint x="184.5" y="400" as="targetPoint" />
            <Array as="points">
              <mxPoint x="184.5" y="330" />
            </Array>
          </mxGeometry>
        </mxCell>
        <mxCell id="Wy7UdA5kOT8vDQ_I42Wn-28" value="Да. Пользуюсь." style="text;html=1;align=center;verticalAlign=middle;whiteSpace=wrap;rounded=0;" vertex="1" parent="1">
          <mxGeometry x="80" y="350" width="90" height="30" as="geometry" />
        </mxCell>
        <mxCell id="Wy7UdA5kOT8vDQ_I42Wn-31" value="Что для Вас важнее: удобство оплаты, бонусы или льготный период?" style="rounded=0;whiteSpace=wrap;html=1;" vertex="1" parent="1">
          <mxGeometry x="80" y="400" width="220" height="60" as="geometry" />
        </mxCell>
        <mxCell id="Wy7UdA5kOT8vDQ_I42Wn-32" value="" style="endArrow=classic;html=1;rounded=0;" edge="1" parent="1">
          <mxGeometry width="50" height="50" relative="1" as="geometry">
            <mxPoint x="180" y="460" as="sourcePoint" />
            <mxPoint x="180" y="520" as="targetPoint" />
          </mxGeometry>
        </mxCell>
        <mxCell id="Wy7UdA5kOT8vDQ_I42Wn-33" value="А льготный период сколько действует?" style="text;html=1;align=center;verticalAlign=middle;whiteSpace=wrap;rounded=0;" vertex="1" parent="1">
          <mxGeometry x="-60" y="480" width="250" height="30" as="geometry" />
        </mxCell>
        <mxCell id="Wy7UdA5kOT8vDQ_I42Wn-34" value="55 дней" style="rounded=0;whiteSpace=wrap;html=1;" vertex="1" parent="1">
          <mxGeometry x="80" y="520" width="220" height="60" as="geometry" />
        </mxCell>
        <mxCell id="Wy7UdA5kOT8vDQ_I42Wn-35" value="" style="endArrow=classic;html=1;rounded=0;" edge="1" parent="1">
          <mxGeometry width="50" height="50" relative="1" as="geometry">
            <mxPoint x="180" y="580" as="sourcePoint" />
            <mxPoint x="180" y="660" as="targetPoint" />
          </mxGeometry>
        </mxCell>
        <mxCell id="Wy7UdA5kOT8vDQ_I42Wn-36" value="Можно ли его увеличить?" style="text;html=1;align=center;verticalAlign=middle;whiteSpace=wrap;rounded=0;" vertex="1" parent="1">
          <mxGeometry x="-10" y="600" width="190" height="30" as="geometry" />
        </mxCell>
        <mxCell id="Wy7UdA5kOT8vDQ_I42Wn-38" value="Нет. Он фиксированный." style="rounded=0;whiteSpace=wrap;html=1;" vertex="1" parent="1">
          <mxGeometry x="80" y="660" width="220" height="60" as="geometry" />
        </mxCell>
        <mxCell id="Wy7UdA5kOT8vDQ_I42Wn-39" value="" style="endArrow=classic;html=1;rounded=0;" edge="1" parent="1">
          <mxGeometry width="50" height="50" relative="1" as="geometry">
            <mxPoint x="180" y="720" as="sourcePoint" />
            <mxPoint x="180" y="800" as="targetPoint" />
          </mxGeometry>
        </mxCell>
        <mxCell id="Wy7UdA5kOT8vDQ_I42Wn-41" value="Тогда ладно. Меня всё устраивает." style="text;html=1;align=center;verticalAlign=middle;whiteSpace=wrap;rounded=0;" vertex="1" parent="1">
          <mxGeometry x="-40" y="750" width="200" height="30" as="geometry" />
        </mxCell>
        <mxCell id="Wy7UdA5kOT8vDQ_I42Wn-42" value="ЗАДАНИЕ 1" style="text;html=1;align=center;verticalAlign=middle;whiteSpace=wrap;rounded=0;fillColor=#e1d5e7;strokeColor=#9673a6;" vertex="1" parent="1">
          <mxGeometry x="-80" y="30" width="170" height="50" as="geometry" />
        </mxCell>
        <mxCell id="Wy7UdA5kOT8vDQ_I42Wn-43" value="Есть ли у Вас ещё какое-нибудь вопросы?" style="rounded=0;whiteSpace=wrap;html=1;" vertex="1" parent="1">
          <mxGeometry x="80" y="800" width="220" height="60" as="geometry" />
        </mxCell>
        <mxCell id="Wy7UdA5kOT8vDQ_I42Wn-46" value="" style="endArrow=classic;html=1;rounded=0;" edge="1" parent="1">
          <mxGeometry width="50" height="50" relative="1" as="geometry">
            <mxPoint x="180" y="860" as="sourcePoint" />
            <mxPoint x="180" y="930" as="targetPoint" />
          </mxGeometry>
        </mxCell>
        <mxCell id="Wy7UdA5kOT8vDQ_I42Wn-48" value="Нет. Если нужно, я к вам обращусь." style="text;html=1;align=center;verticalAlign=middle;whiteSpace=wrap;rounded=0;" vertex="1" parent="1">
          <mxGeometry x="-50" y="890" width="210" height="30" as="geometry" />
        </mxCell>
        <mxCell id="Wy7UdA5kOT8vDQ_I42Wn-51" value="Всего доброго. До свидания." style="rounded=0;whiteSpace=wrap;html=1;" vertex="1" parent="1">
          <mxGeometry x="80" y="930" width="220" height="70" as="geometry" />
        </mxCell>
        <mxCell id="Wy7UdA5kOT8vDQ_I42Wn-52" value="" style="endArrow=classic;html=1;rounded=0;" edge="1" parent="1">
          <mxGeometry width="50" height="50" relative="1" as="geometry">
            <mxPoint x="184.5" y="1000" as="sourcePoint" />
            <mxPoint x="184.5" y="1060" as="targetPoint" />
          </mxGeometry>
        </mxCell>
        <mxCell id="Wy7UdA5kOT8vDQ_I42Wn-53" value="Конец" style="ellipse;whiteSpace=wrap;html=1;aspect=fixed;" vertex="1" parent="1">
          <mxGeometry x="145" y="1060" width="80" height="80" as="geometry" />
        </mxCell>
        <mxCell id="Wy7UdA5kOT8vDQ_I42Wn-54" value="" style="endArrow=none;html=1;rounded=0;" edge="1" parent="1">
          <mxGeometry width="50" height="50" relative="1" as="geometry">
            <mxPoint x="610" y="1100" as="sourcePoint" />
            <mxPoint x="610" y="320" as="targetPoint" />
          </mxGeometry>
        </mxCell>
        <mxCell id="Wy7UdA5kOT8vDQ_I42Wn-55" value="" style="endArrow=classic;html=1;rounded=0;entryX=0.975;entryY=0.625;entryDx=0;entryDy=0;entryPerimeter=0;" edge="1" parent="1">
          <mxGeometry width="50" height="50" relative="1" as="geometry">
            <mxPoint x="612" y="1099.5" as="sourcePoint" />
            <mxPoint x="225" y="1099.5" as="targetPoint" />
            <Array as="points">
              <mxPoint x="362" y="1099.5" />
            </Array>
          </mxGeometry>
        </mxCell>
        <mxCell id="Wy7UdA5kOT8vDQ_I42Wn-56" value="" style="endArrow=classic;html=1;rounded=0;" edge="1" parent="1">
          <mxGeometry width="50" height="50" relative="1" as="geometry">
            <mxPoint x="270" y="320" as="sourcePoint" />
            <mxPoint x="359.655172413793" y="450" as="targetPoint" />
          </mxGeometry>
        </mxCell>
        <mxCell id="Wy7UdA5kOT8vDQ_I42Wn-58" value="Не пользуюсь" style="text;html=1;align=center;verticalAlign=middle;whiteSpace=wrap;rounded=0;" vertex="1" parent="1">
          <mxGeometry x="330" y="390" width="120" height="30" as="geometry" />
        </mxCell>
        <mxCell id="Wy7UdA5kOT8vDQ_I42Wn-59" value="Интересно ли Вам было бы узнать информацию об этом?" style="rounded=0;whiteSpace=wrap;html=1;" vertex="1" parent="1">
          <mxGeometry x="340" y="450" width="210" height="60" as="geometry" />
        </mxCell>
        <mxCell id="Wy7UdA5kOT8vDQ_I42Wn-60" value="" style="endArrow=classic;html=1;rounded=0;" edge="1" parent="1">
          <mxGeometry width="50" height="50" relative="1" as="geometry">
            <mxPoint x="444.5" y="510" as="sourcePoint" />
            <mxPoint x="445" y="570" as="targetPoint" />
          </mxGeometry>
        </mxCell>
        <mxCell id="Wy7UdA5kOT8vDQ_I42Wn-61" value="" style="endArrow=classic;html=1;rounded=0;" edge="1" parent="1">
          <mxGeometry width="50" height="50" relative="1" as="geometry">
            <mxPoint x="530" y="450" as="sourcePoint" />
            <mxPoint x="530" y="350" as="targetPoint" />
          </mxGeometry>
        </mxCell>
        <mxCell id="Wy7UdA5kOT8vDQ_I42Wn-62" value="Нет" style="text;html=1;align=center;verticalAlign=middle;whiteSpace=wrap;rounded=0;" vertex="1" parent="1">
          <mxGeometry x="530" y="392" width="60" height="30" as="geometry" />
        </mxCell>
        <mxCell id="Wy7UdA5kOT8vDQ_I42Wn-63" value="Карта предусматривает 55 дней льготного периода. То есть Вы можете пользоваться ею без снятия процентов если оплачиваете покупки в магазинах, не снимая наличные. Также Вы можете переводить денежные средства на дебетовую карту тоже без процентов до 50 тысяч рублей. Если снимаете наличные с кредитной карты, тогда будет взиматься процент в размере 2,9%, но не менее 390 рублей. Размер процента зависит от снимаемой суммы...&amp;nbsp;&amp;nbsp;" style="rounded=0;whiteSpace=wrap;html=1;" vertex="1" parent="1">
          <mxGeometry x="340" y="570" width="220" height="210" as="geometry" />
        </mxCell>
        <mxCell id="Wy7UdA5kOT8vDQ_I42Wn-65" value="" style="endArrow=classic;html=1;rounded=0;" edge="1" parent="1">
          <mxGeometry width="50" height="50" relative="1" as="geometry">
            <mxPoint x="450" y="780" as="sourcePoint" />
            <mxPoint x="450" y="860" as="targetPoint" />
          </mxGeometry>
        </mxCell>
        <mxCell id="Wy7UdA5kOT8vDQ_I42Wn-66" value="Вам интересно это предложение? Могу предложить оформить и к Вам приедет специалист с картой, подписать договор в любое удобное время.&amp;nbsp;" style="rounded=0;whiteSpace=wrap;html=1;" vertex="1" parent="1">
          <mxGeometry x="340" y="860" width="220" height="100" as="geometry" />
        </mxCell>
        <mxCell id="Wy7UdA5kOT8vDQ_I42Wn-69" value="" style="endArrow=none;html=1;rounded=0;" edge="1" parent="1">
          <mxGeometry width="50" height="50" relative="1" as="geometry">
            <mxPoint x="560" y="920" as="sourcePoint" />
            <mxPoint x="760" y="920" as="targetPoint" />
          </mxGeometry>
        </mxCell>
        <mxCell id="Wy7UdA5kOT8vDQ_I42Wn-70" value="Нет. У меня уже есть другая" style="text;html=1;align=center;verticalAlign=middle;whiteSpace=wrap;rounded=0;" vertex="1" parent="1">
          <mxGeometry x="620" y="880" width="100" height="30" as="geometry" />
        </mxCell>
        <mxCell id="Wy7UdA5kOT8vDQ_I42Wn-71" value="" style="endArrow=none;html=1;rounded=0;" edge="1" parent="1">
          <mxGeometry width="50" height="50" relative="1" as="geometry">
            <mxPoint x="760" y="920" as="sourcePoint" />
            <mxPoint x="760" y="290" as="targetPoint" />
          </mxGeometry>
        </mxCell>
        <mxCell id="Wy7UdA5kOT8vDQ_I42Wn-72" value="" style="endArrow=classic;html=1;rounded=0;" edge="1" parent="1">
          <mxGeometry width="50" height="50" relative="1" as="geometry">
            <mxPoint x="760" y="289.5" as="sourcePoint" />
            <mxPoint x="700" y="289.5" as="targetPoint" />
          </mxGeometry>
        </mxCell>
        <mxCell id="Wy7UdA5kOT8vDQ_I42Wn-73" value="" style="endArrow=classic;html=1;rounded=0;" edge="1" parent="1" target="Wy7UdA5kOT8vDQ_I42Wn-74">
          <mxGeometry width="50" height="50" relative="1" as="geometry">
            <mxPoint x="460" y="960" as="sourcePoint" />
            <mxPoint x="460" y="1010" as="targetPoint" />
          </mxGeometry>
        </mxCell>
        <mxCell id="Wy7UdA5kOT8vDQ_I42Wn-74" value="Сейчас оставлю заявку..." style="rounded=0;whiteSpace=wrap;html=1;" vertex="1" parent="1">
          <mxGeometry x="400" y="1010" width="120" height="60" as="geometry" />
        </mxCell>
        <mxCell id="Wy7UdA5kOT8vDQ_I42Wn-75" value="" style="endArrow=none;html=1;rounded=0;" edge="1" parent="1">
          <mxGeometry width="50" height="50" relative="1" as="geometry">
            <mxPoint x="280" y="1040" as="sourcePoint" />
            <mxPoint x="400" y="1040" as="targetPoint" />
          </mxGeometry>
        </mxCell>
        <mxCell id="Wy7UdA5kOT8vDQ_I42Wn-76" value="" style="endArrow=classic;html=1;rounded=0;entryX=0.909;entryY=1;entryDx=0;entryDy=0;entryPerimeter=0;" edge="1" parent="1" target="Wy7UdA5kOT8vDQ_I42Wn-51">
          <mxGeometry width="50" height="50" relative="1" as="geometry">
            <mxPoint x="280" y="1040" as="sourcePoint" />
            <mxPoint x="330" y="990" as="targetPoint" />
          </mxGeometry>
        </mxCell>
      </root>
    </mxGraphModel>
  </diagram>
</mxfile>
